<?xml version="1.0" encoding="UTF-8"?>
<svg xmlns="http://www.w3.org/2000/svg" viewBox="0 0 800 900" width="800" height="900">
  <title>NEXUS - Versión Monocromática Inversa (Blanco sobre Negro)</title>
  <desc>Optimizado para pantallas oscuras, grabado láser en metal oscuro, dark mode</desc>
  
  <!-- Fondo negro -->
  <rect width="800" height="900" fill="#000000"/>
  
  <!-- Anillos de influencia -->
  <circle cx="400" cy="320" r="377" fill="none" stroke="#FFFFFF" stroke-width="1.5" opacity="0.2"/>
  <circle cx="400" cy="320" r="233" fill="none" stroke="#FFFFFF" stroke-width="2" opacity="0.3"/>
  <circle cx="400" cy="320" r="144" fill="none" stroke="#FFFFFF" stroke-width="2.5" opacity="0.4"/>
  <circle cx="400" cy="320" r="89" fill="none" stroke="#FFFFFF" stroke-width="3" opacity="0.5"/>
  
  <!-- Hexágonos concéntricos -->
  <path d="M 400,50 L 550,150 L 550,490 L 400,590 L 250,490 L 250,150 Z" 
        fill="none" stroke="#FFFFFF" stroke-width="6" opacity="0.3"/>
  <path d="M 400,90 L 520,175 L 520,465 L 400,550 L 280,465 L 280,175 Z" 
        fill="none" stroke="#FFFFFF" stroke-width="6" opacity="0.4"/>
  <path d="M 400,130 L 490,200 L 490,440 L 400,510 L 310,440 L 310,200 Z" 
        fill="none" stroke="#FFFFFF" stroke-width="7" opacity="0.5"/>
  <path d="M 400,170 L 460,225 L 460,415 L 400,470 L 340,415 L 340,225 Z" 
        fill="none" stroke="#FFFFFF" stroke-width="8" opacity="0.6"/>
  <path d="M 400,210 L 430,250 L 430,390 L 400,430 L 370,390 L 370,250 Z" 
        fill="none" stroke="#FFFFFF" stroke-width="9" opacity="0.7"/>
  
  <!-- Placas nanotecnológicas -->
  <g opacity="0.8">
    <path d="M 380,220 L 400,210 L 420,220 L 420,245 L 400,255 L 380,245 Z" fill="#FFFFFF" stroke="#FFFFFF" stroke-width="2"/>
    <path d="M 445,245 L 475,255 L 470,290 L 440,280 Z" fill="#FFFFFF" stroke="#FFFFFF" stroke-width="2"/>
    <path d="M 475,295 L 490,310 L 485,345 L 470,330 Z" fill="#FFFFFF" stroke="#FFFFFF" stroke-width="2"/>
    <path d="M 485,350 L 490,380 L 470,385 L 465,355 Z" fill="#FFFFFF" stroke="#FFFFFF" stroke-width="2"/>
    <path d="M 475,400 L 490,415 L 470,445 L 455,430 Z" fill="#FFFFFF" stroke="#FFFFFF" stroke-width="2"/>
    <path d="M 445,450 L 475,460 L 465,490 L 435,480 Z" fill="#FFFFFF" stroke="#FFFFFF" stroke-width="2"/>
    <path d="M 380,495 L 400,505 L 420,495 L 420,470 L 400,460 L 380,470 Z" fill="#FFFFFF" stroke="#FFFFFF" stroke-width="2"/>
    <path d="M 355,450 L 325,460 L 335,490 L 365,480 Z" fill="#FFFFFF" stroke="#FFFFFF" stroke-width="2"/>
    <path d="M 325,400 L 310,415 L 330,445 L 345,430 Z" fill="#FFFFFF" stroke="#FFFFFF" stroke-width="2"/>
    <path d="M 315,350 L 310,380 L 330,385 L 335,355 Z" fill="#FFFFFF" stroke="#FFFFFF" stroke-width="2"/>
    <path d="M 325,295 L 310,310 L 315,345 L 330,330 Z" fill="#FFFFFF" stroke="#FFFFFF" stroke-width="2"/>
    <path d="M 355,245 L 325,255 L 330,290 L 360,280 Z" fill="#FFFFFF" stroke="#FFFFFF" stroke-width="2"/>
  </g>
  
  <!-- Red neuronal energética -->
  <g opacity="0.5">
    <line x1="400" y1="320" x2="400" y2="210" stroke="#FFFFFF" stroke-width="5" stroke-linecap="round"/>
    <line x1="400" y1="320" x2="460" y2="225" stroke="#FFFFFF" stroke-width="5" stroke-linecap="round"/>
    <line x1="400" y1="320" x2="490" y2="260" stroke="#FFFFFF" stroke-width="5" stroke-linecap="round"/>
    <line x1="400" y1="320" x2="510" y2="320" stroke="#FFFFFF" stroke-width="5" stroke-linecap="round"/>
    <line x1="400" y1="320" x2="490" y2="380" stroke="#FFFFFF" stroke-width="5" stroke-linecap="round"/>
    <line x1="400" y1="320" x2="460" y2="415" stroke="#FFFFFF" stroke-width="5" stroke-linecap="round"/>
    <line x1="400" y1="320" x2="400" y2="430" stroke="#FFFFFF" stroke-width="5" stroke-linecap="round"/>
    <line x1="400" y1="320" x2="340" y2="415" stroke="#FFFFFF" stroke-width="5" stroke-linecap="round"/>
    <line x1="400" y1="320" x2="310" y2="380" stroke="#FFFFFF" stroke-width="5" stroke-linecap="round"/>
    <line x1="400" y1="320" x2="290" y2="320" stroke="#FFFFFF" stroke-width="5" stroke-linecap="round"/>
    <line x1="400" y1="320" x2="310" y2="260" stroke="#FFFFFF" stroke-width="5" stroke-linecap="round"/>
    <line x1="400" y1="320" x2="340" y2="225" stroke="#FFFFFF" stroke-width="5" stroke-linecap="round"/>
  </g>
  
  <!-- Reactor cuántico central -->
  <circle cx="400" cy="320" r="85" fill="#FFFFFF" opacity="0.15"/>
  <circle cx="400" cy="320" r="65" fill="#FFFFFF" opacity="0.3"/>
  <circle cx="400" cy="320" r="45" fill="#FFFFFF" opacity="0.5"/>
  <circle cx="400" cy="320" r="28" fill="#FFFFFF" opacity="0.7"/>
  <circle cx="400" cy="320" r="15" fill="#FFFFFF"/>
  
  <!-- Nodos de anclaje -->
  <circle cx="400" cy="210" r="14" fill="#FFFFFF"/>
  <circle cx="460" cy="225" r="13" fill="#FFFFFF"/>
  <circle cx="490" cy="260" r="12" fill="#FFFFFF"/>
  <circle cx="510" cy="320" r="14" fill="#FFFFFF"/>
  <circle cx="490" cy="380" r="12" fill="#FFFFFF"/>
  <circle cx="460" cy="415" r="13" fill="#FFFFFF"/>
  <circle cx="400" cy="430" r="14" fill="#FFFFFF"/>
  <circle cx="340" cy="415" r="13" fill="#FFFFFF"/>
  <circle cx="310" cy="380" r="12" fill="#FFFFFF"/>
  <circle cx="290" cy="320" r="14" fill="#FFFFFF"/>
  <circle cx="310" cy="260" r="12" fill="#FFFFFF"/>
  <circle cx="340" cy="225" r="13" fill="#FFFFFF"/>
  
  <!-- Texto NEXUS -->
  <text x="400" y="610" text-anchor="middle" fill="#FFFFFF" font-size="140" font-weight="900" letter-spacing="10" font-family="Arial Black, sans-serif">NEXUS</text>
  
  <!-- Líneas decorativas -->
  <line x1="220" y1="660" x2="580" y2="660" stroke="#FFFFFF" stroke-width="4"/>
  <text x="400" y="700" text-anchor="middle" fill="#FFFFFF" font-size="24" font-weight="600" letter-spacing="8" font-family="Arial, sans-serif">INGENIERÍA MECATRÓNICA</text>
  <line x1="260" y1="715" x2="540" y2="715" stroke="#FFFFFF" stroke-width="2"/>
</svg>
